<?xml version="1.0" standalone="no"?>
<!DOCTYPE svg PUBLIC "-//W3C//DTD SVG 20010904//EN"
 "http://www.w3.org/TR/2001/REC-SVG-20010904/DTD/svg10.dtd">
<svg version="1.0" xmlns="http://www.w3.org/2000/svg"
 width="250.000000pt" height="250.000000pt" viewBox="0 0 250.000000 250.000000"
 preserveAspectRatio="xMidYMid meet">

<g transform="translate(0.000000,250.000000) scale(0.100000,-0.100000)"
fill="#000000" stroke="none">
<path d="M1075 2404 c-320 -32 -522 -76 -653 -143 -53 -27 -119 -85 -138 -122
-12 -24 -14 -159 -14 -877 l0 -848 29 -47 c56 -87 177 -153 381 -209 178 -48
308 -62 570 -62 322 0 533 33 736 114 130 52 228 128 254 196 6 15 10 356 10
866 l0 840 -22 39 c-84 150 -427 247 -898 254 -118 2 -233 1 -255 -1z m540
-134 c109 -15 277 -53 350 -81 66 -24 135 -84 135 -116 0 -177 -795 -281
-1345 -177 -204 39 -345 110 -345 174 0 91 277 186 625 214 87 7 497 -3 580
-14z m-141 -1109 c109 -269 202 -494 206 -501 5 -9 25 -5 80 14 40 15 74 25
75 24 6 -6 47 -169 44 -172 -2 -2 -53 -20 -114 -41 -72 -25 -134 -39 -180 -42
l-70 -4 -32 78 c-18 43 -73 175 -123 293 -50 118 -94 224 -98 234 -9 22 -2 34
-213 -362 l-134 -252 -127 0 c-71 0 -128 1 -128 3 0 1 110 206 244 456 l245
454 -30 58 c-40 80 -62 93 -149 87 l-70 -5 0 83 0 84 188 0 188 0 198 -489z"/>
</g>
</svg>
