<?xml version="1.0" standalone="no"?>
<!DOCTYPE svg PUBLIC "-//W3C//DTD SVG 20010904//EN"
 "http://www.w3.org/TR/2001/REC-SVG-20010904/DTD/svg10.dtd">
<svg version="1.0" xmlns="http://www.w3.org/2000/svg"
 width="1024.000000pt" height="1024.000000pt" viewBox="0 0 1024.000000 1024.000000"
 preserveAspectRatio="xMidYMid meet">

<g transform="translate(0.000000,1024.000000) scale(0.100000,-0.100000)"
fill="#000000" stroke="none">
<path d="M0 5120 l0 -5120 5120 0 5120 0 0 5120 0 5120 -5120 0 -5120 0 0
-5120z m2659 1195 c309 -45 509 -127 569 -234 l22 -39 0 -840 c0 -510 -4 -851
-10 -866 -26 -68 -124 -144 -254 -196 -203 -81 -414 -114 -736 -114 -262 0
-392 14 -570 62 -204 56 -325 122 -381 209 l-29 47 0 848 c0 942 -5 874 69
941 112 101 331 161 736 201 93 9 476 -3 584 -19z m3421 -891 l0 -134 45 34
c111 85 262 45 330 -88 28 -55 30 -67 30 -165 0 -90 -4 -114 -24 -158 -42 -94
-127 -153 -221 -153 -38 0 -132 40 -146 61 -6 10 -11 6 -19 -15 -11 -27 -15
-28 -81 -28 l-69 0 -3 383 c-1 211 -1 388 2 394 2 6 35 9 80 7 l76 -4 0 -134z
m-2220 -189 l0 -325 167 -2 168 -3 -1 -65 -1 -65 -247 -3 -246 -2 0 395 0 395
80 0 80 0 0 -325z m3285 -63 c0 -213 -4 -388 -8 -389 -4 -2 -36 -3 -71 -3 -63
0 -65 0 -71 30 l-7 30 -37 -30 c-116 -94 -276 -46 -342 103 -34 74 -33 228 0
304 67 151 239 199 347 97 l34 -31 0 138 0 139 78 0 77 0 0 -388z m1126 374
c110 -25 189 -90 238 -196 34 -73 42 -227 16 -316 -32 -114 -103 -192 -216
-236 -46 -18 -82 -22 -236 -26 l-183 -4 0 396 0 396 163 0 c99 0 184 -5 218
-14z m830 -12 c135 -63 153 -246 31 -329 -32 -22 -33 -23 -12 -30 12 -4 37
-21 56 -37 115 -101 68 -295 -84 -348 -23 -8 -112 -14 -239 -17 l-203 -5 0
397 0 397 203 -4 c180 -3 207 -6 248 -24z m-4405 -194 c24 -12 57 -38 72 -58
l27 -35 6 -231 c4 -127 6 -233 4 -236 -2 -3 -33 -3 -69 -2 -61 3 -66 5 -66 26
0 36 -11 38 -46 6 -101 -88 -286 -51 -325 67 -18 56 -7 129 26 163 42 44 83
59 190 70 140 15 145 16 145 54 0 44 -24 74 -70 86 -55 15 -100 1 -125 -38
-19 -30 -23 -31 -87 -32 -78 0 -81 5 -49 76 20 44 65 77 134 100 59 20 176 11
233 -16z m655 4 c17 -11 39 -33 49 -51 l16 -31 29 35 c82 103 262 91 326 -21
23 -39 24 -51 27 -268 l4 -228 -81 0 -81 0 0 201 0 201 -30 30 c-27 27 -36 30
-72 25 -84 -11 -97 -51 -98 -289 l0 -168 -74 0 -75 0 -3 205 c-3 191 -4 206
-24 225 -29 29 -87 37 -120 15 -46 -30 -54 -68 -54 -265 l0 -180 -80 0 -80 0
0 285 0 285 69 0 69 0 6 -32 6 -32 16 23 c9 13 35 32 58 42 51 25 149 21 197
-7z m2296 1 c52 -21 100 -74 107 -117 3 -18 7 -127 10 -243 l5 -210 -70 3
c-69 4 -69 4 -69 33 0 27 -14 40 -22 20 -8 -22 -83 -60 -131 -66 -68 -9 -128
7 -171 45 -45 40 -59 78 -54 145 8 98 68 140 222 156 143 14 146 15 146 53 0
44 -24 74 -70 86 -55 15 -100 1 -125 -38 -19 -30 -23 -31 -87 -32 -79 0 -83 7
-45 80 23 46 76 84 141 101 46 12 165 3 213 -16z"/>
<path d="M2035 6214 c-348 -28 -625 -123 -625 -214 0 -64 141 -135 345 -174
418 -79 1017 -41 1257 80 51 26 88 66 88 97 0 32 -69 92 -135 116 -73 28 -241
66 -350 81 -83 11 -493 21 -580 14z"/>
<path d="M1900 5496 l0 -83 70 5 c87 6 109 -7 149 -87 l30 -58 -245 -454
c-134 -250 -244 -455 -244 -456 0 -2 57 -3 128 -3 l127 0 134 253 c211 395
204 383 213 361 4 -10 48 -116 98 -234 50 -118 105 -250 123 -293 l32 -78 70
4 c46 3 108 17 180 42 61 21 112 39 114 41 3 3 -38 166 -44 172 -1 1 -35 -9
-75 -24 -55 -19 -75 -23 -80 -14 -4 7 -97 232 -206 501 l-198 489 -188 0 -188
0 0 -84z"/>
<path d="M6140 5218 c-41 -28 -59 -71 -59 -144 -1 -74 8 -108 38 -144 22 -27
36 -33 77 -37 43 -5 54 -2 82 22 48 40 67 146 42 236 -22 79 -112 113 -180 67z"/>
<path d="M6796 5219 c-38 -30 -56 -76 -56 -146 0 -121 42 -183 124 -183 82 0
126 61 126 175 0 112 -36 165 -117 172 -39 4 -53 1 -77 -18z"/>
<path d="M8050 5171 l0 -261 73 0 c125 0 186 30 229 114 26 51 35 166 19 233
-29 117 -94 164 -233 171 l-88 4 0 -261z"/>
<path d="M8800 5335 c0 -94 2 -106 16 -101 9 3 53 6 99 6 75 0 87 3 114 26 27
22 31 33 31 73 0 38 -5 52 -26 72 -23 22 -36 24 -130 27 l-104 4 0 -107z"/>
<path d="M8800 5016 l0 -116 103 0 c118 0 145 10 170 63 17 33 17 42 5 79 -21
66 -50 80 -173 86 l-105 5 0 -117z"/>
<path d="M4595 5023 c-117 -7 -155 -27 -155 -81 0 -87 160 -88 205 -2 15 30
21 91 8 88 -5 -1 -30 -3 -58 -5z"/>
<path d="M7529 5021 c-95 -8 -129 -28 -129 -75 0 -62 62 -90 135 -61 54 20 85
60 85 109 0 20 -3 35 -7 34 -5 0 -42 -4 -84 -7z"/>
</g>
</svg>
