<?xml version="1.0" standalone="no"?>
<!DOCTYPE svg PUBLIC "-//W3C//DTD SVG 20010904//EN"
 "http://www.w3.org/TR/2001/REC-SVG-20010904/DTD/svg10.dtd">
<svg version="1.0" xmlns="http://www.w3.org/2000/svg"
 width="680.000000pt" height="200.000000pt" viewBox="0 0 680.000000 200.000000"
 preserveAspectRatio="xMidYMid meet">

<g transform="translate(0.000000,200.000000) scale(0.100000,-0.100000)"
fill="#000000" stroke="none">
<path d="M655 1980 c-240 -27 -444 -78 -542 -135 -24 -15 -57 -45 -73 -67
l-30 -41 0 -720 0 -720 26 -44 c132 -226 899 -316 1369 -161 154 51 258 121
286 195 5 14 9 317 9 730 0 792 5 743 -76 809 -77 63 -206 103 -469 145 -86
14 -406 19 -500 9z m629 -134 c175 -38 286 -96 286 -149 0 -44 -98 -101 -237
-137 -168 -43 -570 -56 -807 -26 -132 17 -285 60 -344 96 -137 85 19 185 373
239 33 5 184 8 335 6 251 -3 285 -5 394 -29z m-414 -509 c0 -1 21 -52 46 -112
25 -61 50 -121 54 -135 5 -14 40 -101 78 -195 38 -93 91 -222 117 -285 26 -63
48 -116 50 -118 1 -2 31 6 65 18 34 12 64 20 65 18 5 -4 35 -124 35 -136 0
-16 -213 -82 -263 -82 l-44 0 -109 260 c-60 143 -112 260 -116 260 -3 0 -55
-91 -114 -202 -59 -112 -122 -230 -140 -263 l-33 -59 -105 -1 c-58 0 -106 3
-106 7 0 4 40 80 89 170 305 562 313 579 307 613 -4 18 -17 48 -29 66 -22 33
-25 34 -95 37 l-72 3 0 69 0 70 160 0 c88 0 160 -1 160 -3z"/>
<path d="M3976 1322 c-4 -3 -6 -153 -6 -334 l0 -328 65 0 c58 0 65 2 65 20 0
24 13 26 30 6 6 -8 31 -22 55 -32 80 -30 168 3 224 86 29 43 34 58 38 132 11
177 -63 285 -197 287 -36 1 -112 -29 -124 -48 -19 -30 -26 -2 -26 102 l0 112
-59 1 c-33 1 -62 -1 -65 -4z m293 -288 c70 -49 68 -206 -4 -262 -96 -75 -195
54 -154 201 18 66 104 99 158 61z"/>
<path d="M4880 1206 l0 -118 -35 30 c-94 83 -259 27 -297 -101 -16 -56 -16
-183 1 -230 18 -53 68 -107 120 -130 56 -24 115 -17 169 23 l40 29 6 -25 c6
-22 11 -24 66 -24 l60 0 -2 332 -3 331 -63 1 -62 1 0 -119z m-52 -172 c71 -49
70 -219 -2 -269 -58 -41 -141 4 -156 84 -13 71 2 150 34 178 32 27 90 31 124
7z"/>
<path d="M2080 985 l0 -335 210 0 210 0 0 60 0 60 -139 0 -139 0 -4 83 c-2 45
-3 169 -3 274 l0 193 -67 0 -68 0 0 -335z"/>
<path d="M5642 988 l3 -333 145 0 c177 0 236 16 309 81 74 66 96 125 96 254 0
96 -2 110 -29 162 -33 66 -73 107 -136 140 -41 21 -60 23 -218 26 l-172 4 2
-334z m342 189 c45 -35 68 -88 74 -168 11 -158 -61 -239 -213 -239 l-65 0 0
221 0 222 85 -5 c71 -5 91 -10 119 -31z"/>
<path d="M6290 985 l0 -337 173 4 c194 5 235 16 286 74 34 38 46 86 38 146 -7
51 -32 86 -82 114 -35 20 -36 22 -16 29 12 4 35 25 52 47 53 74 30 181 -48
229 -36 23 -49 24 -220 27 l-183 4 0 -337z m329 211 c27 -25 28 -85 2 -117
-17 -21 -29 -24 -110 -27 l-91 -4 0 87 0 87 89 -4 c70 -2 93 -7 110 -22z m-37
-246 c78 -22 103 -106 49 -161 -28 -28 -33 -29 -120 -29 l-91 0 0 100 0 100
63 0 c34 0 79 -5 99 -10z"/>
<path d="M2726 1149 c-51 -12 -90 -41 -110 -83 -28 -59 -23 -66 42 -66 52 0
58 2 73 29 38 66 169 32 169 -45 0 -27 -12 -32 -98 -40 -116 -10 -165 -29
-196 -72 -62 -90 -5 -206 112 -228 42 -8 107 10 150 42 l32 25 0 -25 c0 -25 2
-26 60 -26 l60 0 0 189 c0 179 -1 190 -22 221 -54 79 -151 107 -272 79z m174
-304 c0 -76 -106 -133 -168 -89 -26 18 -30 65 -5 85 9 8 46 17 82 20 36 3 72
7 79 7 7 1 12 -9 12 -23z"/>
<path d="M3315 1146 c-17 -7 -37 -21 -45 -31 -14 -17 -15 -16 -20 6 -5 21 -12
24 -63 27 l-57 3 0 -246 0 -245 65 0 65 0 0 150 c0 161 10 209 48 229 34 18
71 13 97 -14 25 -24 25 -27 25 -195 l0 -170 65 0 65 0 0 143 c0 78 5 159 10
179 19 68 89 90 135 43 25 -24 25 -27 25 -195 l0 -170 71 0 71 0 -4 194 -3
194 -30 44 c-26 36 -39 45 -86 57 -73 19 -120 9 -170 -36 -33 -30 -42 -34 -50
-22 -5 8 -9 18 -9 22 0 4 -19 17 -42 27 -49 23 -120 25 -163 6z"/>
<path d="M5232 1146 c-66 -22 -112 -74 -112 -126 0 -18 6 -20 53 -20 47 0 56
3 74 29 25 33 61 43 109 29 37 -10 54 -33 54 -72 0 -29 -7 -32 -117 -45 -137
-17 -182 -46 -190 -125 -7 -56 9 -97 52 -135 59 -52 160 -49 233 5 l32 25 0
-25 c0 -23 4 -24 60 -28 l60 -3 0 170 c0 224 -14 270 -94 312 -41 21 -161 26
-214 9z m178 -307 c0 -41 -15 -66 -50 -84 -63 -33 -130 -9 -130 45 0 42 27 58
100 63 36 2 68 4 73 5 4 1 7 -12 7 -29z"/>
</g>
</svg>
