<?xml version="1.0" standalone="no"?>
<!DOCTYPE svg PUBLIC "-//W3C//DTD SVG 20010904//EN"
 "http://www.w3.org/TR/2001/REC-SVG-20010904/DTD/svg10.dtd">
<svg version="1.0" xmlns="http://www.w3.org/2000/svg"
 width="1024.000000pt" height="1024.000000pt" viewBox="0 0 1024.000000 1024.000000"
 preserveAspectRatio="xMidYMid meet">

<g transform="translate(0.000000,1024.000000) scale(0.100000,-0.100000)"
fill="#000000" stroke="none">
<path d="M2075 6334 c-320 -32 -522 -76 -653 -143 -53 -27 -119 -85 -138 -122
-12 -24 -14 -159 -14 -877 l0 -848 29 -47 c56 -87 177 -153 381 -209 178 -48
308 -62 570 -62 322 0 533 33 736 114 130 52 228 128 254 196 6 15 10 356 10
866 l0 840 -22 39 c-84 150 -427 247 -898 254 -118 2 -233 1 -255 -1z m540
-134 c109 -15 277 -53 350 -81 66 -24 135 -84 135 -116 0 -177 -795 -281
-1345 -177 -204 39 -345 110 -345 174 0 91 277 186 625 214 87 7 497 -3 580
-14z m-141 -1109 c109 -269 202 -494 206 -501 5 -9 25 -5 80 14 40 15 74 25
75 24 6 -6 47 -169 44 -172 -2 -2 -53 -20 -114 -41 -72 -25 -134 -39 -180 -42
l-70 -4 -32 78 c-18 43 -73 175 -123 293 -50 118 -94 224 -98 234 -9 22 -2 34
-213 -361 l-134 -253 -127 0 c-71 0 -128 1 -128 3 0 1 110 206 244 456 l245
454 -30 58 c-40 80 -62 93 -149 87 l-70 -5 0 83 0 84 188 0 188 0 198 -489z"/>
<path d="M5924 5555 c-3 -6 -3 -183 -2 -394 l3 -383 69 0 c66 0 70 1 81 28 8
21 13 25 19 15 14 -21 108 -61 146 -61 94 0 179 59 221 153 20 44 24 68 24
158 0 98 -2 110 -30 165 -68 133 -219 173 -330 88 l-45 -34 0 134 0 134 -76 4
c-45 2 -78 -1 -80 -7z m362 -346 c29 -27 44 -76 44 -144 0 -73 -16 -120 -52
-150 -28 -24 -39 -27 -82 -22 -81 7 -117 63 -115 181 0 73 18 116 59 144 44
30 109 26 146 -9z"/>
<path d="M3700 5165 l0 -395 246 2 247 3 1 65 1 65 -168 3 -167 2 0 325 0 325
-80 0 -80 0 0 -395z"/>
<path d="M6990 5421 l0 -138 -34 31 c-79 75 -197 73 -281 -5 -66 -61 -89 -123
-89 -244 -1 -120 22 -182 89 -244 83 -76 190 -81 276 -11 l37 30 7 -30 c6 -30
8 -30 71 -30 35 0 67 1 71 3 4 1 8 176 8 389 l0 388 -77 0 -78 0 0 -139z m-49
-207 c33 -29 49 -77 49 -149 0 -114 -44 -175 -126 -175 -82 0 -124 62 -124
183 0 112 49 172 133 164 27 -2 56 -12 68 -23z"/>
<path d="M7890 5164 l0 -396 183 4 c154 4 190 8 236 26 164 64 237 190 229
396 -4 114 -28 181 -88 249 -79 91 -167 117 -397 117 l-163 0 0 -396z m377
238 c80 -41 119 -136 111 -265 -6 -82 -31 -141 -78 -180 -40 -34 -89 -47 -177
-47 l-73 0 0 261 0 261 88 -4 c64 -3 98 -10 129 -26z"/>
<path d="M8650 5165 l0 -397 203 5 c127 3 216 9 239 17 152 53 199 247 84 348
-19 16 -44 33 -56 37 -21 7 -20 8 12 30 122 83 104 266 -31 329 -41 18 -68 21
-248 24 l-203 4 0 -397z m384 246 c21 -20 26 -34 26 -72 0 -40 -4 -51 -31 -73
-27 -23 -39 -26 -114 -26 -46 0 -90 -3 -99 -6 -14 -5 -16 7 -16 101 l0 107
104 -4 c94 -3 107 -5 130 -27z m4 -308 c15 -11 33 -38 40 -61 12 -37 12 -46
-5 -79 -25 -53 -52 -63 -170 -63 l-103 0 0 116 0 117 105 -5 c85 -4 111 -9
133 -25z"/>
<path d="M4463 5356 c-69 -23 -114 -56 -134 -100 -32 -71 -29 -76 49 -76 64 1
68 2 87 32 25 39 70 53 125 38 46 -12 70 -42 70 -86 0 -38 -5 -39 -145 -54
-107 -11 -148 -26 -190 -70 -33 -34 -44 -107 -26 -163 39 -118 224 -155 325
-67 35 32 46 30 46 -6 0 -21 5 -23 66 -26 36 -1 67 -1 69 2 2 3 0 109 -4 236
l-6 231 -27 35 c-15 20 -48 46 -72 58 -57 27 -174 36 -233 16z m197 -356 c0
-71 -56 -122 -136 -124 -51 -1 -84 25 -84 66 0 54 38 74 155 81 28 2 53 4 58
5 4 1 7 -12 7 -28z"/>
<path d="M5154 5351 c-23 -10 -49 -29 -58 -42 l-16 -23 -6 32 -6 32 -69 0 -69
0 0 -285 0 -285 80 0 80 0 0 180 c0 197 8 235 54 265 33 22 91 14 120 -15 20
-19 21 -34 24 -225 l3 -205 75 0 74 0 0 168 c1 238 14 278 98 289 36 5 45 2
72 -25 l30 -30 0 -201 0 -201 81 0 81 0 -4 228 c-3 217 -4 229 -27 268 -64
112 -244 124 -326 21 l-29 -35 -16 31 c-24 45 -70 69 -143 74 -47 3 -72 -1
-103 -16z"/>
<path d="M7434 5361 c-65 -17 -118 -55 -141 -101 -38 -73 -34 -80 45 -80 64 1
68 2 87 32 25 39 70 53 125 38 46 -12 70 -42 70 -86 0 -38 -3 -39 -146 -53
-154 -16 -214 -58 -222 -156 -5 -67 9 -105 54 -145 43 -38 103 -54 171 -45 48
6 123 44 131 66 8 20 22 7 22 -20 0 -29 0 -29 69 -33 l70 -3 -5 210 c-3 116
-7 225 -10 243 -7 43 -55 96 -107 117 -48 19 -167 28 -213 16z m186 -367 c0
-49 -31 -89 -85 -109 -73 -29 -135 -1 -135 61 0 47 34 67 129 75 42 3 79 7 84
7 4 1 7 -14 7 -34z"/>
</g>
</svg>
